<svg xmlns="http://www.w3.org/2000/svg" xmlns:xlink="http://www.w3.org/1999/xlink" viewBox="0 0 1370 874"><defs><style>.cls-1{fill:#d64541;}.cls-2{fill:url(#linear-gradient);}.cls-3{fill:url(#linear-gradient-2);}.cls-4{fill:url(#linear-gradient-3);}</style><linearGradient id="linear-gradient" x1="435.6" y1="-50.01" x2="929.5" y2="643.14" gradientUnits="userSpaceOnUse"><stop offset="0" stop-color="#d64541"/><stop offset="0.53" stop-color="#d4433f"/><stop offset="0.79" stop-color="#cc3c3a"/><stop offset="1" stop-color="#bf3030"/></linearGradient><linearGradient id="linear-gradient-2" x1="389" y1="-5.37" x2="903.27" y2="496.69" gradientUnits="userSpaceOnUse"><stop offset="0" stop-color="#fff"/><stop offset="1" stop-color="#c9c9c9"/></linearGradient><linearGradient id="linear-gradient-3" x1="387.68" y1="9.73" x2="898.86" y2="508.78" xlink:href="#linear-gradient-2"/></defs><title>Asset 30</title><g id="Layer_2" data-name="Layer 2"><g id="Layer_1-2" data-name="Layer 1"><path class="cls-1" d="M80.22,849.92a55.75,55.75,0,0,0,29.47-8.27q13.1-8.26,22-25.31L154,825.94q-12.08,23.88-31.11,35.71A78,78,0,0,1,80.22,874,80.38,80.38,0,0,1,49,867.78,81.79,81.79,0,0,1,6.24,825.12a81,81,0,0,1,0-62.35A82.09,82.09,0,0,1,49,720.22,80.38,80.38,0,0,1,80.22,714a78,78,0,0,1,42.67,12.35q19,11.84,31.11,35.71l-22.31,9.59q-8.9-17.14-22-25.1a54.76,54.76,0,0,0-29.47-8.47,54.36,54.36,0,0,0-39.7,16.33,56.06,56.06,0,0,0,0,79.18A54.35,54.35,0,0,0,80.22,849.92Z"/><path class="cls-1" d="M193,857a55.92,55.92,0,0,1-17-41q0-23.9,17-40.92a55.92,55.92,0,0,1,41-17q23.9,0,40.92,17t17,40.92a55.92,55.92,0,0,1-17,41q-17,17-40.92,17A55.92,55.92,0,0,1,193,857Zm17-65.13a34,34,0,1,0,24-9.95A32.92,32.92,0,0,0,210,791.85Z"/><path class="cls-1" d="M1087,857a55.92,55.92,0,0,1-17-41q0-23.9,17-40.92a55.92,55.92,0,0,1,41-17q23.9,0,40.92,17t17,40.92a55.92,55.92,0,0,1-17,41q-17,17-40.92,17A55.92,55.92,0,0,1,1087,857Zm17-65.13a34,34,0,1,0,24-9.95A32.92,32.92,0,0,0,1104,791.85Z"/><path class="cls-1" d="M1225,857a55.92,55.92,0,0,1-17-41q0-23.9,17-40.92a55.92,55.92,0,0,1,41-17q23.9,0,40.92,17t17,40.92a55.92,55.92,0,0,1-17,41q-17,17-40.92,17A55.92,55.92,0,0,1,1225,857Zm17-65.13a34,34,0,1,0,24-9.95A32.92,32.92,0,0,0,1242,791.85Z"/><path class="cls-1" d="M510.05,758q23.9,0,40.92,17t17,40.92l-.21,7.39H476.72Q478,831.74,487,841.08a33.61,33.61,0,0,0,40.92,3.79q7.9-4.72,13.95-16.51l22.05,9.54q-9.23,18.46-23,27.08a56,56,0,0,1-30.87,9q-23.9,0-40.92-17t-17.13-41q0-23.9,17.13-40.92T510.05,758ZM540,799.44q-2.57-5.23-10.05-11.08a33.87,33.87,0,0,0-39.8,0q-7.28,5.95-9.95,11.08Z"/><path class="cls-1" d="M932,837.9q-9.24,18.46-23,27.08a56.07,56.07,0,0,1-30.9,9q-23.92,0-41.06-17a55.89,55.89,0,0,1-17-41q0-23.9,17-40.92t41.06-17a56.07,56.07,0,0,1,30.9,9q13.76,8.62,23,27l-22.07,9.54q-6.06-11.69-14-16.51a34.15,34.15,0,1,0,0,57.85q7.9-4.72,14-16.51Z"/><path class="cls-1" d="M406,714v55a57.94,57.94,0,0,0-75,6q-17,17-17,40.92A58,58,0,0,0,406,863v11h24V714Zm-9.85,126.15A34.28,34.28,0,1,1,406,813.26v5.38A33,33,0,0,1,396.15,840.15Z"/><path class="cls-1" d="M789.81,802c-.5-.67-1-1.33-1.57-2-9.34-10.82-25-16.84-43.11-18.06-25.45-1.63-39.17-8.23-39.17-19.8q0-1.17.1-2.28.95-10.77,11.07-16.59a33.15,33.15,0,0,1,10.46-4,41.93,41.93,0,0,1,9.85-1.22c10.49,0,21.31,3.78,28.49,11.33,4.08,3.59,10.8,15.07,10.8,15.07l21.28-8c-2-6.45-9-17.45-14.72-23.78C771.5,720.22,754.89,714,737.43,714q-22,0-37.66,12Q682,739.61,682,762.16q0,14,8.22,23.84h0c.5.67,1,1.33,1.57,2,9.34,10.82,25,16.84,43.11,18.06,25.45,1.63,39.17,8.23,39.17,19.8q0,12.45-11.17,18.88a33.15,33.15,0,0,1-10.46,4,41.93,41.93,0,0,1-9.85,1.22c-10.49,0-21.31-3.78-28.49-11.33-4.08-3.59-10.8-15.07-10.8-15.07l-21.28,8c2,6.45,9,17.45,14.72,23.78C708.5,867.78,725.11,874,742.57,874q22,0,37.66-12Q798,848.39,798,825.84q0-14-8.22-23.84Z"/><rect class="cls-1" x="1346" y="714" width="24" height="160"/><path class="cls-1" d="M1048,804.5A46.92,46.92,0,0,0,1001.16,758,45,45,0,0,0,978,764V714H954V874h24V804.5a23,23,0,1,1,46,0V874h24V804.5Z"/><path class="cls-1" d="M660,782V758H648a55.55,55.55,0,0,0-34,11V758H590V874h24V813.29A34,34,0,0,1,648,782Z"/><circle class="cls-2" cx="685" cy="300" r="300"/><path class="cls-3" d="M595.75,137.25a95.44,95.44,0,0,0-20.18,28.43,82.45,82.45,0,0,0-7.06,33.88s-.22,34.79-.37,38.14c-.64,14.57-3.47,21-12.15,31.55-11.49,13.9-36,12-36,12v37.5s24.51-1.9,36,12c8.68,10.5,11.51,17,12.15,31.55.15,3.35.37,38.14.37,38.14a82.45,82.45,0,0,0,7.06,33.88,95.44,95.44,0,0,0,20.18,28.43c8.1,7.83,33,24.75,63.56,24.75H782.5V450h-120c-35.25,0-48.75-23.25-52-29.95a44.38,44.38,0,0,1-4.24-19.51V372.7c0-16.34-3.12-31.41-9.27-44.76h0C587.5,306.75,579.25,300,579.25,300s8.25-6.75,17.75-27.93h0c6.15-13.36,9.27-28.42,9.27-44.76V199.46a44.38,44.38,0,0,1,4.24-19.51c3.24-6.7,16.74-29.95,52-29.95h120V112.5H659.31C628.75,112.5,603.85,129.42,595.75,137.25Z"/><path class="cls-4" d="M685,22.5C531.74,22.5,407.5,146.74,407.5,300S531.74,577.5,685,577.5,962.5,453.26,962.5,300,838.26,22.5,685,22.5ZM685,555c-140.83,0-255-114.17-255-255S544.17,45,685,45,940,159.17,940,300,825.83,555,685,555Z"/></g></g></svg>